<svg width="74.000000" height="74.000000" viewBox="0 0 74 74" fill="none" xmlns="http://www.w3.org/2000/svg" xmlns:xlink="http://www.w3.org/1999/xlink">
	<desc>
			Created with Pixso.
	</desc>
	<defs>
		<clipPath id="clip3_159">
			<rect id="Icons/Ad-pop-up" width="74.000000" height="74.000000" fill="white" fill-opacity="0"/>
		</clipPath>
	</defs>
	<rect id="Icons/Ad-pop-up" width="74.000000" height="74.000000" fill="#FFFFFF" fill-opacity="0"/>
	<g clip-path="url(#clip3_159)">
		<path id="Vector" d="M48.87 9.22C48.87 9.82 48.38 10.31 47.78 10.31C47.19 10.31 46.7 9.82 46.7 9.22C46.7 8.63 47.19 8.14 47.78 8.14C48.38 8.14 48.87 8.63 48.87 9.22Z" fill="#2B2B2B" fill-opacity="1.000000" fill-rule="evenodd"/>
		<path id="Vector" d="M53.52 9.22C53.52 9.82 53.03 10.31 52.44 10.31C51.84 10.31 51.35 9.82 51.35 9.22C51.35 8.63 51.84 8.14 52.44 8.14C53.03 8.14 53.52 8.63 53.52 9.22Z" fill="#2B2B2B" fill-opacity="1.000000" fill-rule="evenodd"/>
		<path id="Vector" d="M20.47 10.31L39.95 10.31C40.55 10.31 41.04 9.82 41.04 9.22C41.04 8.63 40.55 8.14 39.95 8.14L20.47 8.14C19.87 8.14 19.39 8.63 19.39 9.22C19.39 9.82 19.87 10.31 20.47 10.31Z" fill="#2B2B2B" fill-opacity="1.000000" fill-rule="nonzero"/>
		<path id="Vector" d="M71.12 59.36L69.21 59.36L69.21 52.26C69.21 51.66 68.73 51.18 68.13 51.18C67.53 51.18 67.04 51.66 67.04 52.26L67.04 59.36C62.4 59.36 9.81 59.36 6.95 59.36L6.95 22.76C6.95 21.28 8.14 20.08 9.62 20.08L14.76 20.08L14.76 23L11.94 23C10.8 23 9.87 23.94 9.87 25.08L9.87 54.37C9.87 55.51 10.8 56.44 11.94 56.44L62.05 56.44C63.19 56.44 64.12 55.51 64.12 54.37L64.12 25.08C64.12 23.94 63.19 23 62.05 23L59.23 23L59.23 20.08L64.37 20.08C65.85 20.08 67.04 21.28 67.04 22.76L67.04 47.19C67.04 47.79 67.53 48.28 68.13 48.28C68.73 48.28 69.21 47.79 69.21 47.19L69.21 22.76C69.21 20.09 67.04 17.92 64.37 17.92L59.23 17.92L59.23 5.99C59.23 4.76 58.23 3.76 57 3.76L16.99 3.76C15.76 3.76 14.76 4.76 14.76 5.99L14.76 17.92L9.62 17.92C6.95 17.92 4.78 20.09 4.78 22.76L4.78 59.36L2.87 59.36C1.29 59.36 0 60.66 0 62.24C0 66.65 3.58 70.23 7.98 70.23L66.01 70.23C70.41 70.23 74 66.65 74 62.24C74 60.66 72.7 59.36 71.12 59.36ZM12.03 25.17L14.76 25.17L14.76 54.28L12.03 54.28L12.03 25.17ZM61.96 25.17L61.96 54.28L59.23 54.28L59.23 25.17L61.96 25.17ZM16.99 5.93L57 5.93C57.03 5.93 57.06 5.96 57.06 5.99L57.06 12.52L25.41 12.52C24.81 12.52 24.33 13 24.33 13.6C24.33 14.2 24.81 14.69 25.41 14.69L57.06 14.69L57.06 54.28L16.93 54.28L16.93 14.69L20.34 14.69C20.94 14.69 21.43 14.2 21.43 13.6C21.43 13 20.94 12.52 20.34 12.52L16.93 12.52L16.93 5.99C16.93 5.96 16.96 5.93 16.99 5.93ZM26.55 61.53L47.44 61.53L47.44 62.62C47.44 63.22 46.96 63.71 46.35 63.71L27.63 63.71C27.03 63.71 26.55 63.22 26.55 62.62L26.55 61.53ZM66.01 68.06L7.98 68.06C4.77 68.06 2.16 65.45 2.16 62.24C2.16 61.85 2.48 61.53 2.87 61.53L24.38 61.53L24.38 62.62C24.38 64.42 25.84 65.88 27.63 65.88L46.35 65.88C48.15 65.88 49.61 64.42 49.61 62.62L49.61 61.53L71.12 61.53C71.51 61.53 71.83 61.85 71.83 62.24C71.83 65.45 69.22 68.06 66.01 68.06Z" fill="#2B2B2B" fill-opacity="1.000000" fill-rule="nonzero"/>
		<path id="Vector" d="M22.54 34.81L21.76 35.01C20.01 35.46 18.96 37.23 19.41 38.98L19.96 41.08C20.34 42.55 21.66 43.53 23.11 43.53C23.74 43.53 24.09 43.37 24.84 43.19C25.39 43.83 26.23 44.19 27.1 44.1L30.9 49.87C31.29 50.46 31.96 50.81 32.65 50.81C33.08 50.81 33.27 50.7 34.41 50.43C35.53 50.14 36.21 48.99 35.92 47.87L34.47 42.24L36.02 41.84C40.14 40.78 44.48 41.8 47.69 44.56L47.71 44.61C47.92 45.42 48.43 46.1 49.15 46.53C49.64 46.82 50.18 46.97 50.74 46.97C51 46.97 51.26 46.93 51.52 46.87C52.33 46.66 53.02 46.14 53.44 45.42C53.87 44.7 53.99 43.86 53.78 43.05L48 20.61C47.79 19.8 47.27 19.12 46.55 18.69C45.83 18.26 44.99 18.14 44.18 18.35C43.37 18.56 42.69 19.07 42.26 19.8C41.84 20.52 41.72 21.36 41.92 22.17L41.94 22.22C40.46 26.2 37.15 29.18 33.03 30.24L24.52 32.44C23.39 32.73 22.62 33.71 22.54 34.81ZM23.39 41.33C22.8 41.48 22.21 41.13 22.06 40.54L21.51 38.44C21.36 37.85 21.71 37.26 22.3 37.11L22.95 36.94L24.04 41.16L23.39 41.33ZM33.8 48.34L32.68 48.63L29.34 43.56L32.37 42.78L33.8 48.34ZM44.13 20.9C44.26 20.68 44.47 20.52 44.72 20.45C44.8 20.43 44.88 20.42 44.96 20.42C45.39 20.42 45.78 20.71 45.9 21.15L51.68 43.59C51.81 44.1 51.5 44.63 50.98 44.77C50.47 44.9 49.94 44.59 49.81 44.07L44.02 21.63C43.96 21.38 44 21.12 44.13 20.9ZM42.77 25.47L46.86 41.31C41.01 37.91 35.45 39.78 35.32 39.78L33.41 32.38C33.53 32.33 39.3 31.29 42.77 25.47ZM25.06 34.54L31.31 32.93L33.22 40.32C31.32 40.81 28.28 41.6 26.96 41.94C26.51 42.05 26.39 41.59 26.38 41.58L24.72 35.11C24.65 34.86 24.8 34.6 25.06 34.54Z" fill="#2B2B2B" fill-opacity="1.000000" fill-rule="nonzero"/>
	</g>
</svg>
